<svg xmlns="http://www.w3.org/2000/svg" width="492" height="492" fill="none" viewBox="0 0 492 492"><mask id="mask0" width="492" height="492" x="0" y="0" maskUnits="userSpaceOnUse" style="mask-type:alpha"><path fill="#fff" d="M492 246C492 110.138 381.862 0 246 0C110.138 0 0 110.138 0 246C0 381.862 110.138 492 246 492C381.862 492 492 381.862 492 246Z"/></mask><g mask="url(#mask0)"><path fill="#D1FAFF" d="M492 0H0V492H492V0Z"/><path fill="#57A773" d="M371.348 560.854C492.402 499.174 540.534 351.039 478.854 229.985C417.174 108.931 269.039 60.799 147.985 122.479C26.931 184.159 -21.2011 332.294 40.479 453.348C102.159 574.402 250.294 622.534 371.348 560.854Z"/><path fill="#2C302E" d="M81.3784 303.905C80.667 317.479 87.1743 330.873 99.4687 341.142C111.763 351.411 128.838 357.713 146.936 358.661C165.034 359.61 182.674 355.127 195.974 346.2C209.275 337.272 217.146 324.631 217.858 311.058"/><path fill="#2C302E" d="M77.4155 248.956C77.8105 241.418 73.5479 235.067 67.8948 234.771C62.2416 234.475 57.3386 240.345 56.9436 247.883C56.5485 255.42 60.8111 261.771 66.4642 262.067C72.1174 262.363 77.0204 256.493 77.4155 248.956Z"/><path fill="#2C302E" d="M241.191 257.539C241.586 250.001 237.323 243.651 231.67 243.354C226.017 243.058 221.114 248.928 220.719 256.466C220.324 264.003 224.586 270.354 230.239 270.65C235.893 270.946 240.796 265.076 241.191 257.539Z"/></g></svg>