<svg xmlns="http://www.w3.org/2000/svg" width="172" height="582" fill="none" viewBox="0 0 172 582"><path fill="#856034" d="M42.4743 581.108H-6.47284L0.853148 489.524H35.1519L42.4743 581.108Z"/><path fill="#4FA06D" d="M142.156 361.923C119.345 330.277 138.926 291.206 126.152 260.649C112.91 228.966 102.058 228.48 89.9202 201.858C78.9695 177.841 99.6577 143.199 88.0786 117.443C71.1978 79.8924 59.9366 86.2757 52.691 51.2498C48.6242 31.614 29.4122 0.610962 18.0012 0.610962C6.59024 0.610962 -12.6217 31.614 -16.6885 51.2498C-23.9341 86.2757 -35.1953 79.8924 -52.0761 117.443C-63.6552 143.199 -42.967 177.841 -53.9177 201.858C-66.0558 228.48 -76.9077 228.966 -90.153 260.649C-102.923 291.206 -83.3422 330.277 -106.153 361.923C-137.664 405.634 -141.099 436.272 -130.802 459.649C-119.103 486.194 -43.2411 504.617 18.0012 504.617C79.2436 504.617 155.105 486.194 166.801 459.649C177.101 436.272 173.667 405.634 142.156 361.923Z"/><path fill="#2E8556" d="M63.3799 473.934C2.13394 473.934 -38.592 452.789 -53.8907 433.025C-69.6753 412.63 -61.4834 403.257 -38.592 354.899C-21.2581 318.272 -51.3659 283.933 -38.592 253.376C-25.3504 221.694 -30.3379 221.986 -18.1998 195.364C-7.24916 171.347 -37.441 142.511 -24.3163 117.442C-8.00185 86.2742 -12.624 31.6125 -16.6871 51.2483C-23.9327 86.2742 -35.1975 79.8909 -52.0784 117.442C-63.6574 143.198 -42.9656 177.84 -53.9199 201.857C-66.058 228.482 -76.91 228.968 -90.1552 260.647C-102.925 291.205 -83.3408 330.275 -106.152 361.921C-137.663 405.636 -141.101 436.27 -130.804 459.647C-119.101 486.193 -43.2433 504.615 17.999 504.615C76.8115 504.615 149.063 487.625 165.074 462.771C135.394 472.6 97.8395 473.934 63.3799 473.934Z"/><path fill="#57A773" d="M42.9839 179.569C48.8995 171.768 60.7599 170.8 60.7599 170.8C60.7599 170.8 63.029 182.481 57.1097 190.282C51.1941 198.083 39.3337 199.055 39.3337 199.055C39.3337 199.055 37.0683 187.37 42.9839 179.569Z"/><path fill="#57A773" d="M38.9985 76.0209C43.7777 84.5673 39.912 95.8212 39.912 95.8212C39.912 95.8212 28.3 93.2196 23.5244 84.6696C18.7452 76.1232 22.6146 64.8693 22.6146 64.8693C22.6146 64.8693 34.2229 67.4745 38.9985 76.0209Z"/><path fill="#57A773" d="M58.7091 206.005C67.2628 210.777 69.879 222.382 69.879 222.382C69.879 222.382 58.6288 226.259 50.0751 221.49C41.525 216.722 38.9089 205.114 38.9089 205.114C38.9089 205.114 50.1591 201.237 58.7091 206.005Z"/><path fill="#2E8556" d="M91.7189 473.081C84.6341 479.841 72.7663 478.902 72.7663 478.902C72.7663 478.902 72.3973 467.009 79.4785 460.249C86.567 453.493 98.4311 454.432 98.4311 454.432C98.4311 454.432 98.8037 466.322 91.7189 473.081Z"/><path fill="#4FA06D" d="M132.767 325.957C124.027 321.536 120.951 310.041 120.951 310.041C120.951 310.041 132.037 305.715 140.769 310.136C149.509 314.557 152.59 326.052 152.59 326.052C152.59 326.052 141.504 330.378 132.767 325.957Z"/><path fill="#4FA06D" d="M140.45 304.578C134.973 312.697 123.186 314.315 123.186 314.315C123.186 314.315 120.277 302.777 125.758 294.661C131.235 286.542 143.023 284.924 143.023 284.924C143.023 284.924 145.927 296.463 140.45 304.578Z"/><path fill="#2E8556" d="M8.47563 375.042C1.33233 368.348 1.59907 356.451 1.59907 356.451C1.59907 356.451 13.4522 355.409 20.5955 362.103C27.7424 368.797 27.4757 380.694 27.4757 380.694C27.4757 380.694 15.6226 381.739 8.47563 375.042Z"/></svg>