<svg xmlns="http://www.w3.org/2000/svg" width="2389" height="4023" fill="none" viewBox="0 0 2389 4023"><path fill="#E65151" d="M231.85 1899.65C274.209 1835.28 274.229 1770.9 231.851 1706.56C292.363 1751.62 352.895 1751.59 413.386 1706.56C371.068 1770.92 371.028 1835.28 413.386 1899.65C352.895 1854.57 292.383 1854.61 231.85 1899.65Z" opacity=".2"/><path fill="#E65151" d="M2148.06 2221.45C2190.42 2157.09 2190.44 2092.71 2148.06 2028.37C2208.58 2073.42 2269.11 2073.4 2329.6 2028.37C2287.28 2092.73 2287.24 2157.09 2329.6 2221.45C2269.11 2176.38 2208.6 2176.42 2148.06 2221.45ZM736.117 3294.13C778.476 3229.77 778.496 3165.39 736.117 3101.05C796.629 3146.1 857.161 3146.08 917.653 3101.05C875.335 3165.41 875.295 3229.77 917.653 3294.13C857.161 3249.06 796.649 3249.1 736.117 3294.13Z" opacity=".1"/><path fill="#E94B35" d="M1232.32 3.14545C1229.53 6.87838 1231.13 6.8998 1228.28 3.14542C818.071 567.268 738.982 1050.51 784.527 1420.59C786.15 1433.69 787.932 1446.77 789.872 1459.82L789.912 1460.21C851.312 1871.35 1066.9 2140.46 1129.45 2210.72L1109.27 2232.18L1149.62 2317.99L1310.98 2317.99L1351.32 2232.18L1331.15 2210.72C1378.1 2158.81 1420.58 2102.52 1458.09 2042.55L1458.17 2042.55C1469.2 2023 1478.5 2024.18 1553.03 2103.45L1734.57 2296.54C1771.05 2335.35 1803.95 2329.88 1803.93 2286.86C1803.83 2182.79 1803.53 2157.58 1803.37 1921.55C1803.23 1742.91 1764.66 1679.75 1639.94 1620.86C1741.06 1232.78 1720.85 675.845 1232.32 3.14545Z"/><path fill="#C23824" d="M1310.98 2317.99L1149.61 2317.99L1109.27 2232.18L1149.61 2189.27H1310.98L1351.32 2232.18L1310.98 2317.99ZM826.884 1631.48C778.313 1653.53 766.372 1652.93 726.031 1695.84C685.69 1738.74 669.493 1815.18 669.593 1930.2C669.694 2112.83 669.372 2138.06 669.432 2295.42C669.472 2346.87 711.165 2312.35 766.372 2253.63C871.925 2141.36 951.378 2051.49 1012.68 2052.59C1093.62 2054.03 826.884 1631.48 826.884 1631.48ZM1230.3 1.0009C1317.72 121.399 1391.93 240.102 1451.31 352.819C1390.41 333.06 1311.61 314.159 1234.03 314.803C1147.88 315.468 1063.71 340.118 1003.86 362.881C1090.51 196.486 1173.72 78.8561 1230.3 1.0009Z"/><path fill="#fff" d="M1639.94 1620.86C1764.64 1679.72 1803.33 1738.34 1803.33 1917.09C1803.33 1953.3 1803.95 2253.63 1803.91 2286.88C1803.89 2329.9 1771.72 2334.64 1734.57 2296.54L1721.41 2282.55C1721.41 2153.83 1736.56 1882.93 1714.39 1803.1C1701.43 1756.36 1647.79 1717.16 1613.54 1695.84C1582.24 1804.65 1463.83 2030.73 1458.17 2042.55C1407.42 2124.24 1359.59 2178.03 1331.15 2210.72L1317.92 2196.65C1317.92 2196.65 1727.63 1346.27 1230.3 0.999918C1723.53 679.814 1741.06 1232.78 1639.94 1620.86Z" opacity=".3"/><path fill="#fff" d="M1341.24 1084.41C1268.95 1161.3 1151.31 1161.3 1079.02 1084.41C1006.73 1007.52 1006.73 882.4 1079.02 805.51C1151.31 728.621 1268.95 728.621 1341.24 805.511C1413.53 882.4 1413.53 1007.52 1341.24 1084.41Z"/><path fill="#C23824" d="M1099.19 826.964C1128.61 795.67 1168.52 778.089 1210.13 778.089C1251.74 778.089 1291.64 795.67 1321.07 826.964C1350.49 858.258 1367.02 900.702 1367.02 944.959C1367.02 989.216 1350.49 1031.66 1321.07 1062.95C1291.64 1094.25 1251.74 1111.83 1210.13 1111.83C1168.52 1111.83 1128.61 1094.25 1099.19 1062.95C1069.77 1031.66 1053.24 989.216 1053.24 944.959C1053.24 900.702 1069.77 858.258 1099.19 826.964ZM1058.85 784.057C975.402 872.81 975.422 1017.13 1058.85 1105.86C1142.27 1194.59 1277.96 1194.61 1361.41 1105.86C1444.85 1017.11 1444.83 872.789 1361.41 784.057C1277.98 695.325 1142.29 695.303 1058.85 784.057Z"/><path fill="#D7DCDE" d="M1149.62 2317.99L1310.98 2317.99L1331.15 3841.2L1089.1 3841.2L1149.62 2317.99Z"/><path fill="#F7F7F7" d="M1147.09 2320.67H1227.78L1210.13 3948.47H1089.1L1147.09 2320.67Z"/></svg>