<svg xmlns="http://www.w3.org/2000/svg" width="1919" height="533" fill="none" viewBox="0 0 1919 533"><g clip-path="url(#clip0)"><path fill="#E4B987" d="M-5 285.785C-5 285.785 294.584 222.848 574.312 294.332C803.7 352.953 1062.93 178.83 1374.91 138.933C1685.74 99.1843 1924.3 151.366 1924.3 151.366V533H-5V285.785Z"/><path fill="#E1A874" d="M-5 339.397C-5 339.397 220.165 290.449 438.299 393.009C656.43 495.574 815.541 455.948 951.554 413.991C1087.57 372.032 1195.35 220.519 1398.09 166.907C1489.16 142.82 1544.99 143.362 1644.52 161.965C1701.71 172.653 1728.24 208.196 1767.28 219.463C1811.57 232.244 1918.44 213.993 1918.44 213.993L1924.3 532.998H-5V339.397Z"/><path fill="#E4B987" d="M1845.84 325.114C1785.38 344.832 1719.63 357.83 1653.44 353.697C1588.09 349.617 1522.77 332.119 1458.47 341.432C1399.19 350.019 1350.57 380.156 1293.58 394.665C1247.72 406.341 1198.53 407.638 1151.45 415.654C1135.01 418.456 1113.6 420.148 1099.19 426.648C1078.11 436.165 1058.74 449.268 1040.27 461.182C1017.56 475.834 995.429 491.695 967.608 500.751C951.33 506.05 933.696 508.808 916.832 513.06C899.967 517.313 871.92 522.775 861.155 533H1924.23L1924.57 314.929C1924.57 314.929 1887.87 311.408 1845.84 325.114Z"/><path fill="#E1A874" d="M1721.29 412.441C1711.72 415.708 1701.82 419.306 1695 426.222C1688.18 433.138 1685.54 444.388 1691.84 451.7C1695.94 456.466 1702.72 458.522 1709.13 460.158C1725.77 464.401 1742.77 467.478 1759.93 469.35C1776.21 471.128 1792.94 471.796 1808.83 468.065C1830.75 462.913 1849.37 449.77 1865.27 435.122C1888.4 413.801 1901.89 367.358 1853.12 374.484C1808.72 380.97 1763.17 398.132 1721.29 412.441Z"/><path fill="#E4B987" d="M252.347 380.469C249.768 382.21 247.274 384.325 246.206 387.153C244.696 391.152 246.454 395.733 249.46 398.877C252.464 402.025 256.538 404.025 260.518 405.962C279.085 414.992 297.655 424.024 316.221 433.054C333.535 441.472 353.268 450.107 371.706 444.233C376.188 442.803 380.499 440.434 383.238 436.774C385.977 433.116 386.919 428.466 386.773 423.978C386.395 412.215 378.986 401.428 369.37 394.003C359.751 386.579 348.066 382.046 336.432 377.985C311.518 369.29 275.569 364.767 252.347 380.469Z"/><path fill="#E4B987" d="M196.43 371.791C200.677 374.114 205.277 375.88 210.047 377.021C213.813 377.921 217.815 378.428 221.566 377.482C226.224 376.305 229.899 373.071 233.363 369.953C234.437 368.989 235.582 367.877 235.631 366.491C235.666 365.587 235.213 364.73 234.689 363.966C232.191 360.346 227.893 358.055 223.428 356.923C216.117 355.073 203.951 354.03 196.491 356.275C187.698 358.923 189.474 367.989 196.43 371.791Z"/><path fill="#E4B987" d="M174.185 398.243C173.509 399.27 172.932 400.389 173.007 401.544C173.095 402.924 174.101 404.156 175.125 405.283C178.766 409.294 183.076 412.937 187.91 416.092C194.326 420.282 202.796 423.732 210.81 421.858C218.544 420.047 223.108 413.987 226.764 408.374C228.286 406.035 229.818 403.574 229.787 400.953C229.748 397.938 227.577 395.107 224.614 393.17C221.651 391.236 217.964 390.095 214.237 389.294C199.357 386.095 182.152 386.135 174.185 398.243Z"/><path fill="#A33D7C" d="M1656.85 591.69C1632.92 501.444 1608.57 410.119 1562.9 328.518C1553.17 311.145 1542.29 293.645 1539.75 273.937C1537.22 254.232 1545.87 231.413 1564.74 224.676C1586.73 219.11 1598.06 261.886 1613.55 281.452C1626.04 297.23 1638.11 313.599 1646.13 332.009C1653.8 349.596 1657.55 368.564 1661.25 387.367C1671.13 437.49 1681.03 487.958 1681.53 539.025"/><path fill="#A33D7C" d="M1569.2 458.657C1558.16 446.262 1546.96 433.63 1540 418.604C1537.39 412.976 1535.38 407.014 1531.84 401.909C1522.92 389.035 1505.73 383.564 1497.15 370.466C1493.3 364.579 1491.5 357.545 1491.08 350.544C1490.64 343.439 1491.95 335.528 1497.48 330.981C1506.02 323.96 1519.15 328.819 1527.76 335.763C1538.33 344.286 1546.41 355.39 1554.35 366.355C1565.81 382.171 1577.63 398.874 1580.09 418.188"/><path fill="#BA4483" d="M1607.02 570.559C1583.45 550.455 1560.15 529.691 1541.35 505.147C1522.54 480.604 1508.32 451.85 1505.19 421.192C1504.1 410.536 1505.06 398.238 1513.5 391.541C1524.09 383.145 1539.99 388.424 1551.01 396.255C1568.43 408.633 1581.35 426.198 1592.79 444.159C1617.17 482.443 1636.28 524.018 1649.41 567.374"/><path fill="#CF4B89" d="M1638.86 665.931C1637.47 620.033 1635.45 571.9 1611.85 532.378C1598.35 509.788 1578.54 491.435 1564.79 468.995C1547.96 441.529 1540.94 408.297 1545.23 376.451C1547.61 358.809 1553.99 340.714 1567.81 329.343C1570.38 327.23 1573.42 325.301 1576.77 325.406C1580.95 325.536 1584.3 328.755 1587.11 331.829C1610.7 357.668 1628.17 388.296 1645.44 418.642C1654.74 434.969 1664.08 451.417 1670.04 469.204C1675.3 484.903 1677.83 501.346 1680.33 517.703C1689.11 575.107 1697.91 633.111 1693.4 691"/><path fill="#CF4B89" d="M1699.13 570.467C1677.19 489.613 1673.01 404.073 1686.97 321.496C1689.32 307.579 1692.3 293.435 1699.63 281.333C1705.91 270.956 1715.71 262.246 1727.54 259.254C1739.38 256.262 1753.19 259.867 1760.49 269.571C1767.9 279.44 1767.46 292.951 1765.82 305.149C1759.86 349.465 1742.45 392.015 1740.13 436.664C1737.8 481.459 1750.6 528.007 1735.69 570.362"/><path fill="#CF4B89" d="M1758.31 572.111C1753.36 523.089 1752.5 472.736 1766.52 425.468C1771.66 408.145 1778.96 391.083 1790.95 377.492C1802.95 363.901 1820.19 354.087 1838.42 354.05C1839.9 354.048 1841.45 354.127 1842.72 354.872C1845.61 356.561 1845.71 360.608 1845.31 363.906C1842.25 388.986 1831.04 412.336 1825.25 436.939C1813.69 486.033 1823.23 541.063 1797.3 584.439C1794.73 588.742 1790.4 593.421 1785.55 592.008"/><path fill="#BA4483" d="M1667.4 550.535C1654.79 516.663 1647.11 480.99 1644.69 444.964C1643.64 429.325 1643.67 413.073 1649.98 398.694C1654.39 388.631 1664.3 378.964 1675.09 381.443C1685.66 383.873 1690.25 396.048 1692.4 406.587C1700.89 448.474 1698.07 492.199 1708.71 533.603C1713.92 553.863 1722.33 575.106 1715.73 594.965"/><path fill="#BA4483" d="M1734.77 553.536C1720.9 513.849 1724.4 468.527 1744.2 431.389C1755.94 409.364 1773 390.302 1783.32 367.592C1795.11 341.661 1797.39 312.586 1798.46 284.168C1798.92 272.047 1799.45 259.099 1806.6 249.252C1813.74 239.403 1830.22 235.357 1838.09 244.648C1841.97 249.225 1842.72 255.591 1842.96 261.56C1846.37 347.02 1778.95 420.957 1771.16 506.138C1769.29 526.528 1770.92 547.091 1769.62 567.526"/><path fill="#BA4483" d="M1820.28 558.722C1818.5 525.352 1829.57 491.462 1850.75 465.451C1854.74 460.551 1859.29 455.77 1865.19 453.435C1871.1 451.101 1878.67 451.856 1882.71 456.719C1888.55 463.737 1884.41 474.124 1880.72 482.448C1874.4 496.695 1869.99 511.773 1867.65 527.163C1866.28 536.132 1865.6 545.263 1862.94 553.941C1860.28 562.622 1855.31 571.028 1847.42 575.625"/><path fill="#A33D7C" d="M381.952 562.05C377.104 556.555 372.255 551.06 367.407 545.565C359.117 536.167 350.791 526.722 343.794 515.946C330.284 495.137 322.087 469.548 320.549 443.36C320.214 437.635 320.224 431.667 322.235 426.447C324.247 421.229 328.745 416.97 333.569 417.508C337.179 417.912 340.21 420.793 342.898 423.682C356.413 438.204 367.335 456.099 374.746 475.853C383.98 500.46 388.029 528.298 401.965 549.577"/><path fill="#A33D7C" d="M419.418 557.507C409.57 486.579 409.74 413.712 419.912 342.845C422.904 322.005 427.653 299.568 441.76 286.62C444.847 283.787 448.435 281.461 452.332 281.116C461.546 280.307 468.792 290.496 472.342 300.601C479.987 322.375 478.243 347.268 473.19 370.081C468.137 392.888 459.962 414.595 454.828 437.379C446.115 476.035 446.459 517.496 455.805 555.943"/><path fill="#A33D7C" d="M472.131 561.536C471.956 541.629 469.785 521.669 471.5 501.864C473.215 482.056 479.491 461.694 492.822 449.566C494.332 448.191 495.992 446.9 497.877 446.583C503.413 445.65 507.235 453.069 508.446 459.532C514.555 492.167 495.445 526.96 504.454 558.639"/><path fill="#BA4483" d="M364.807 511.647C361.864 497.196 361.833 482.122 359.435 467.532C353.307 430.257 331.853 393.788 341.304 357.497C344.197 346.388 352.822 334.996 362.246 338.253C365.856 339.501 368.742 342.718 371.119 346.17C378.463 356.847 382.142 370.423 384.288 383.958C390.7 424.433 384.806 467.229 395.308 506.488C399.054 520.492 419.483 557.895 396.35 562.754C378.819 566.432 367.928 526.961 364.807 511.647Z"/><path fill="#BA4483" d="M435.75 587.321C435.232 576.364 435.332 565.368 436.047 554.429C436.799 542.895 438.235 531.429 438.901 519.884C439.723 505.733 439.515 490.877 445.068 478.307C450.62 465.735 464.548 456.904 474.835 464.17C481.374 468.794 484.281 478.132 485.951 486.929C493.106 524.632 486.09 564.117 475.685 600.742"/><path fill="#BA4483" d="M507.672 560.541C521.853 530.756 530.232 497.122 531.976 462.988C532.826 446.349 532.145 429.439 535.435 413.228C538.725 397.02 546.948 381.032 560.087 375.053C562.947 373.754 566.306 373.01 568.97 374.798C572.475 377.152 573.22 382.682 573.316 387.45C573.655 404.677 570.544 421.708 567.45 438.545C564.383 455.24 561.318 471.938 558.248 488.636C555.553 503.313 552.808 518.155 547.27 531.67C537.26 556.093 518.385 575.646 513.778 602.236"/><path fill="#BA4483" d="M336.237 546.125C333.409 525.066 325.358 505.029 313.343 489.144C310.911 485.932 307.538 482.613 304.035 483.804C301.063 484.814 299.503 488.663 298.801 492.228C295.583 508.535 302.652 524.953 309.487 539.608C313.154 547.472 316.822 555.333 320.489 563.196"/><path fill="#CF4B89" d="M404.612 592.447C387.055 558.336 377.546 518.567 376.908 478.621C376.684 464.639 377.52 450.61 376.431 436.682C375.334 422.647 372.281 408.691 373.284 394.642C374.288 380.595 380.674 365.742 392.052 361.605C401.905 358.026 412.98 363.75 419.479 373.221C425.977 382.695 428.535 395.188 429.137 407.372C430.344 431.869 424.441 455.972 421.665 480.285C418.972 503.856 419.228 527.897 422.419 551.378C425.229 572.057 429.785 595.489 419.137 612.216"/><path fill="#CF4B89" d="M490.581 609.057C490.428 571.456 490.4 532.941 501.208 497.585C505.116 484.797 510.422 472.517 512.74 459.194C515.219 444.936 514.154 430.153 512.403 415.742C511.261 406.345 510.265 395.32 516.037 388.733C521.211 382.824 530.103 383.602 535.849 388.721C541.594 393.837 544.652 402.196 546.203 410.51C554.421 454.602 527.024 496.563 522.219 541.354C520.645 556.003 521.527 570.907 519.923 585.548C518.323 600.191 513.712 615.299 503.75 624.176"/><path fill="#CF4B89" d="M557.829 555.979C558.825 532.388 564.87 509.116 575.245 488.944C578.279 483.041 583.989 476.651 589.087 480.013C592.484 482.251 593.227 487.659 592.946 492.251C592.217 504.139 587.348 515.013 584.104 526.292C579.323 542.897 578.031 560.894 580.372 578.217"/><path fill="#3387C4" d="M1289.05 522.285C1284.16 499.903 1298.34 478.13 1306.48 456.386C1312.99 438.974 1315.7 420.793 1318.38 402.722C1332.5 416.063 1339.52 433.866 1339.74 451.486C1339.95 469.107 1333.68 486.525 1323.75 502.174C1318.02 511.203 1310.89 520.164 1310.14 530.314C1309.76 535.313 1320.47 555.555 1307.88 552.436C1298.29 550.064 1290.56 529.199 1289.05 522.285Z"/><path fill="#63B0DD" d="M1321.59 578C1321.18 578 1320.79 577.818 1320.59 577.504L1304.08 551.099C1298.19 541.682 1290.86 529.964 1291.97 517.854C1292.79 508.993 1297.96 500.972 1302.95 493.217C1304.39 490.986 1305.87 488.68 1307.22 486.401C1318.65 467.096 1322.66 444.805 1318.51 423.636C1318.42 423.136 1318.83 422.669 1319.44 422.59C1320.06 422.517 1320.62 422.848 1320.72 423.347C1324.94 444.882 1320.86 467.558 1309.24 487.197C1307.87 489.499 1306.38 491.821 1304.93 494.065C1300.04 501.656 1294.99 509.506 1294.21 517.989C1293.14 529.59 1300.31 541.056 1306.07 550.269L1322.59 576.672C1322.87 577.123 1322.65 577.672 1322.1 577.9C1321.93 577.967 1321.76 578 1321.59 578Z"/><path fill="#3B9CD5" d="M1413.94 565.62C1384.84 550.466 1365.72 523.296 1364.35 495.165C1362.89 465.319 1379.77 433.921 1365.1 406.553C1354.22 386.259 1328.86 374.199 1305.08 363.506C1316.4 354.983 1327.95 346.328 1341.87 340.945C1355.79 335.561 1372.7 333.852 1386.47 339.487C1399.06 344.641 1407.08 354.906 1414.46 364.69C1419.27 371.055 1424.08 377.42 1428.88 383.783C1430.12 385.42 1431.37 387.085 1431.95 388.944C1433.02 392.361 1431.71 395.946 1430.3 399.279C1419.2 425.568 1401.37 450.46 1398.05 478.13C1394.32 509.355 1411 541.723 1440.97 561.39"/><path fill="#3387C4" d="M1447.66 541.485C1442.87 533.01 1435.17 525.767 1430.79 517.149C1424.6 504.961 1425.65 490.972 1430.42 478.366C1435.19 465.762 1443.45 454.256 1451.63 442.876C1456.06 436.713 1461.34 430.009 1469.84 428.272C1468.69 441.048 1469.73 453.956 1472.92 466.499C1474.83 474.029 1477.53 481.6 1476.78 489.268C1475.59 501.245 1466.11 511.844 1464.64 523.8C1463.56 532.661 1466.99 541.21 1468.37 549.903C1469.13 554.69 1471.89 571.207 1465.9 574.237C1452.41 581.069 1450.61 546.728 1447.66 541.485Z"/><path fill="#3B9CD5" d="M1342.35 496.125C1335.61 488.494 1324.19 484.858 1314.3 480.027C1284.53 465.491 1266.25 436.616 1268.97 408.405C1262.43 412.497 1256.72 417.461 1252.12 423.04C1249.27 426.5 1246.8 430.306 1246.17 434.443C1245.65 437.875 1246.42 441.341 1247.18 444.742C1248.67 451.346 1250.16 457.95 1251.64 464.554C1252.81 469.715 1254.04 475.02 1257.48 479.451C1260.82 483.755 1265.99 486.887 1271.31 489.561C1281.49 494.691 1292.66 498.521 1304.27 500.876C1310.52 502.14 1317.19 503.087 1322.18 506.402C1327.83 510.149 1330.23 516.162 1332.52 521.797C1338.18 535.755 1344.05 550.851 1352.83 563.743C1357.58 570.727 1359.47 569.286 1360.42 561.804C1361.55 552.878 1360.07 543.107 1357.88 534.361C1354.87 522.315 1351.29 506.234 1342.35 496.125Z"/><path fill="#63B0DD" d="M1426.64 568.891C1426.3 568.891 1425.96 568.762 1425.74 568.517L1396.16 535.488C1390.76 529.473 1385.19 523.25 1381.49 516.205C1374.64 503.136 1374.87 488.198 1376.13 474.003C1377.81 455.16 1381.06 436.218 1385.79 417.707L1386.3 415.689C1388.28 408.036 1390.32 400.122 1389.42 392.341C1387.55 376.202 1371.46 361.591 1351.98 358.354C1351.38 358.252 1350.99 357.771 1351.11 357.278C1351.23 356.782 1351.83 356.468 1352.43 356.565C1372.83 359.958 1389.69 375.262 1391.65 392.17C1392.58 400.226 1390.5 408.278 1388.49 416.066L1387.98 418.077C1383.27 436.513 1380.03 455.371 1378.36 474.136C1377.12 488.101 1376.89 502.776 1383.55 515.49C1387.15 522.342 1392.65 528.479 1397.96 534.413L1427.55 567.441C1427.91 567.848 1427.8 568.419 1427.3 568.714C1427.11 568.835 1426.88 568.891 1426.64 568.891Z"/><path fill="#63B0DD" d="M1356.15 565.36C1356.09 565.36 1356.03 565.356 1355.97 565.347C1355.36 565.263 1354.95 564.793 1355.05 564.296C1357.96 550.185 1353.48 535.967 1348.63 522.613C1344.56 511.4 1339.16 498.924 1326.53 492.807C1319.79 489.54 1312.07 488.598 1303.9 487.6C1297.11 486.77 1290.09 485.913 1283.73 483.583C1261.99 475.62 1254.83 452.825 1260.47 435.39C1260.62 434.903 1261.23 434.609 1261.83 434.741C1262.43 434.87 1262.79 435.368 1262.63 435.857C1257.23 452.555 1263.99 474.35 1284.64 481.919C1290.72 484.145 1297.59 484.984 1304.23 485.796C1312.26 486.778 1320.55 487.788 1327.67 491.24C1341 497.692 1346.58 510.55 1350.77 522.096C1355.48 535.06 1360.25 550.105 1357.25 564.599C1357.16 565.044 1356.69 565.36 1356.15 565.36Z"/><path fill="#63B0DD" d="M1464.71 574.017C1464.16 574.017 1463.68 573.685 1463.6 573.227C1462.24 565.074 1460.76 556.817 1459.22 548.691C1458.12 542.881 1456.87 536.293 1452.93 530.764C1451.59 528.872 1449.9 527.082 1448.27 525.351C1446.67 523.655 1445.02 521.896 1443.64 520.004C1440.01 515.033 1438.02 508.938 1437.36 500.82C1436.21 486.453 1445.24 454.841 1459.62 442.283C1460.04 441.916 1460.75 441.896 1461.2 442.239C1461.65 442.582 1461.67 443.16 1461.25 443.527C1446.83 456.122 1438.58 488.148 1439.59 500.701C1440.23 508.52 1442.12 514.358 1445.56 519.07C1446.87 520.871 1448.49 522.584 1450.05 524.242C1451.72 526.017 1453.45 527.854 1454.87 529.848C1459.02 535.673 1460.36 542.737 1461.43 548.414C1462.98 556.551 1464.45 564.815 1465.82 572.982C1465.9 573.48 1465.48 573.94 1464.86 574.007C1464.81 574.013 1464.76 574.017 1464.71 574.017Z"/><path fill="#FFDA4F" d="M131.944 285.226C136.443 287.909 129.476 332.159 129.476 332.159C129.476 332.159 170.096 337.9 172.878 345.392C175.657 352.881 130.172 354.394 130.172 354.394C130.172 354.394 143.893 393.462 139.15 396.941C130.949 402.958 108.343 360.259 108.343 360.259C108.343 360.259 72.5201 381.24 66.697 373.113C60.8769 364.99 93.4175 340.799 93.4175 340.799C93.4175 340.799 66.1529 314.826 68.2656 309.917C71.6529 302.042 108.966 324.053 108.966 324.053C108.966 324.053 125.772 281.544 131.944 285.226Z"/><path fill="#FFBD4F" d="M128.194 304.029C127.525 304.617 126.747 305.148 125.895 305.135C125.1 305.122 124.359 304.617 123.849 303.942C122.639 302.34 122.734 299.717 124.057 298.233C127.707 294.126 132.739 300.053 128.194 304.029Z"/><path fill="#FFBD4F" d="M122.443 320.533C120.756 320.526 119.112 319.388 118.361 317.707C118.123 317.174 117.971 316.586 118.005 315.995C118.25 312.034 123.085 309.415 125.756 312.245C128.604 315.261 126.166 320.547 122.443 320.533Z"/><path fill="#FFBD4F" d="M135.441 347.663C135.121 347.771 134.781 347.796 134.45 347.761C133.206 347.638 132.088 346.669 131.48 345.367C131.164 344.692 130.986 343.933 131.001 343.152C131.071 339.363 134.035 338.264 135.828 341.021C136.972 342.778 137.917 346.795 135.441 347.663Z"/><path fill="#FFBD4F" d="M149.595 347.749C148.042 347.887 146.383 347.503 145.228 346.311C144.076 345.115 143.593 343.005 144.401 341.483C145.808 338.832 150.078 338.964 151.899 341.022C154.196 343.618 152.643 347.475 149.595 347.749Z"/><path fill="#FFBD4F" d="M125.669 369.039C124.742 369.937 123.453 370.267 122.214 370.28C121.213 370.289 120.173 370.099 119.362 369.463C118.017 368.406 117.633 366.217 118.367 364.595C119.104 362.974 120.785 361.986 122.449 361.989C125.853 361.992 128.806 366.004 125.669 369.039Z"/><path fill="#FFBD4F" d="M131.722 378.304C131.929 379.024 132.122 379.804 131.903 380.517C131.662 381.323 130.939 381.834 130.209 382.027C128.825 382.387 127.254 381.729 126.485 380.37C125.717 379.014 125.867 377.04 126.894 375.923C127.711 375.035 129.006 374.767 130.047 375.268C131.089 375.776 131.817 377.02 131.823 378.307"/><path fill="#FFBD4F" d="M97.94 355.221C97.7151 356.863 96.6017 358.059 95.4504 358.797C94.1771 359.613 92.5842 360.028 91.3787 359.057C90.398 358.266 89.9023 356.666 90.016 355.179C90.1298 353.688 90.7854 352.334 91.6604 351.353C93.9902 348.74 98.5766 350.516 97.94 355.221Z"/><path fill="#FFBD4F" d="M84.7115 364.716C84.4254 365.502 83.7589 366.05 83.0498 366.369C81.8598 366.903 80.4232 366.866 79.358 366.07C78.2928 365.28 77.7085 363.688 78.1467 362.357C79.8145 357.293 86.4524 359.947 84.7115 364.716Z"/><path fill="#FFBD4F" d="M99.7916 334.917C98.4337 335.702 96.8726 336.199 95.3998 335.777C93.4941 335.236 92.039 333.07 92.0007 330.787C91.9653 328.505 93.3203 326.298 95.173 325.55C99.8329 323.662 105.064 331.86 99.7916 334.917Z"/><path fill="#FFBD4F" d="M87.8569 322.87C87.3741 324.429 85.9342 325.474 84.5696 325.238C83.2023 325.002 82.0582 323.496 82.0023 321.829C81.9437 320.165 82.993 318.541 84.3464 318.217C86.3081 317.749 88.5992 320.468 87.8569 322.87Z"/><path fill="#8EAACE" d="M254.639 510.485C240.874 522.463 226.371 532.746 226.371 532.746H0V378.285C0 378.285 9.55595 371.487 21.2665 368.002C27.6105 366.098 34.593 365.204 41.0368 366.896C45.5055 368.096 49.695 370.543 53.2261 374.805C71.1211 396.477 85.066 434.033 110.941 438.715C134.222 442.951 244.764 460.788 272.395 473.586C275.467 475 277.522 476.389 278.3 477.659C282.25 484.105 268.824 498.179 254.639 510.485Z"/><path fill="#3B9CD5" d="M254.257 510.488C240.512 522.464 226.03 532.746 226.03 532.746H0V378.303C0 378.303 9.5416 371.506 21.2345 368.021C23.0273 402.069 29.9196 435.244 51.7119 455.902C72.568 475.64 106.073 483.193 112.208 513.923C157.944 496.606 207.923 495.689 254.257 510.488Z" opacity=".2"/><path fill="#fff" d="M272.174 473.516C269.904 475.161 267.594 476.69 265.164 477.933C258.393 481.362 250.925 482.349 243.556 482.962C208.904 485.802 174.073 481.127 139.44 485.074C131.713 485.966 123.269 489.866 116.518 484.463C111.918 480.801 108.771 473.942 105.266 468.962C97.2402 457.59 90.9471 457.19 78.7192 457.331C79.1972 447.771 79.1573 440.679 70.554 436.824C62.6876 433.301 55.0601 429.072 47.7313 424.163C45.3814 422.613 42.9716 420.851 41.5776 418.102C39.9844 414.955 40.0441 411.055 40.1437 407.393C40.5022 393.931 40.8606 380.473 41.2191 367.011C45.6801 368.209 49.8622 370.652 53.3872 374.906C71.251 396.538 85.1717 434.029 111.002 438.706C134.242 442.932 244.592 460.74 272.174 473.516Z" opacity=".7"/></g></svg>