<svg width="351" height="459" viewBox="0 0 351 459" fill="none" xmlns="http://www.w3.org/2000/svg">
<path d="M98.5763 432.489C79.2759 422.66 67.1839 398.555 60.3391 374.2C53.4944 349.84 50.5692 323.913 42.6392 300.063C34.2394 274.801 20.5257 252.774 10.9618 228.149C1.39496 203.528 -3.72193 173.82 5.93589 149.251C7.05142 146.426 8.51555 143.521 10.883 142.379C17.3731 139.254 21.7261 150.745 22.4263 159.301C24.9969 190.693 26.5065 222.92 36.5766 251.917C44.3155 274.199 56.7773 293.524 65.1135 315.472C82.8801 362.241 81.9101 420.384 109.698 459C103.73 397.717 97.6791 335.954 81.9586 277.365C74.0286 247.815 63.6403 219.058 59.3055 188.392C51.13 130.548 65.1165 71.8208 78.9545 15.639C81.0522 7.1275 87.221 -3.54364 93.3443 1.1463C96.2907 3.40329 97.0395 8.22049 97.3092 12.4875C99.8252 52.7617 84.4079 91.7371 83.7804 132.124C83.2499 166.069 93.1381 198.722 100.022 231.589C108.092 270.127 112.123 309.952 111.984 349.754C111.887 377.448 110.862 408.829 126.722 428.409C127.977 377.976 129.235 327.544 130.49 277.111C130.757 266.38 138.053 251.344 144.525 258.52C145.895 314.57 142.782 370.793 135.243 426.092C151.976 379.35 170.943 333.824 192.008 289.833C196.373 280.719 203.563 270.287 211.709 273.581C204.991 303.817 198.274 334.053 191.556 364.288C183.435 400.827 170.889 443.104 141.288 453.082" fill="#57A773"/>
<path d="M226.476 356.409C204.812 343.525 181.258 329.817 170.063 303.576C157.066 273.117 164.313 233.302 149.075 204.464C141.948 217.625 140.648 234.145 139.551 249.91C138.019 271.981 136.486 294.086 136.446 316.24C136.416 331.364 137.191 347.011 142.733 360.508C153.643 387.094 179.426 398.03 202.999 404.599C226.573 411.167 252.348 417.107 268.419 439.359C271.44 443.544 274.215 448.391 278.41 450.558C297.819 460.585 281.057 413.432 276.949 405.127C265.385 381.755 245.937 367.986 226.476 356.409Z" fill="#63924D"/>
<path d="M252.59 394.181C244.912 368.554 247.89 339.221 238.85 314.283C228.997 287.099 206.605 269.799 194.743 243.863C176.853 204.738 186.451 156.041 196.492 112.869C216.881 185.56 274.277 239.104 283.632 315.144C286.5 338.452 284.524 362.214 285.442 385.76C286.376 409.623 292.386 428.761 301.184 449.059C280.366 441.248 260.195 419.564 252.59 394.181Z" fill="#8DBB47"/>
<path d="M261.344 354.346C263.924 340.705 268.919 327.763 270.337 313.866C273.631 281.609 257.444 251.535 252.791 219.534C248.965 193.223 253.138 165.801 261.715 141.254C270.295 116.704 283.112 94.7485 296.984 74.2033C300.424 87.5938 299.564 102.013 298.638 116.014C296.714 145.027 294.718 174.823 301.372 202.749C310.806 242.329 337.195 276.777 335.063 317.944C333.689 344.481 320.53 367.493 308.877 389.872C301.919 403.242 296.838 416.727 292.079 431.396C287.282 446.185 280.572 443.358 273.708 431.091C261.401 409.09 256.404 380.486 261.344 354.346Z" fill="#98D44B"/>
<path d="M240.122 425.116C242.933 405.322 258.194 389.038 271.129 372.726C281.832 359.235 291.301 344.971 299.413 330.128C304.175 321.41 308.538 312.256 309.152 302.583C310.127 287.2 301.532 272.225 302.872 256.859C303.771 246.564 309.055 237.025 314.339 227.829C323.823 211.316 333.614 194.94 343.707 178.717C342.346 221.056 343.982 263.468 348.603 305.624C350.123 319.502 351.891 333.958 346.431 347.034C342.549 356.329 335.303 364.155 328.231 371.826C301.951 400.316 276.275 429.249 251.223 458.603C246.575 453.658 243.817 447.334 243.497 440.897" fill="#63924D"/>
</svg>
