<svg width="333" height="456" viewBox="0 0 333 456" fill="none" xmlns="http://www.w3.org/2000/svg">
<path d="M219.812 327.395C224.296 303.268 233.437 282.955 236.931 258.209C241.059 228.972 236.77 198.041 236.394 167.727C235.671 109.418 250.657 51.2339 275.063 17.5506C294.638 8.04431 274.522 122.489 278.016 174.457C279.252 192.812 280.787 211.61 278.678 229.665C275.823 254.107 266.762 273.608 259.532 294.34C243.289 340.945 236.341 396.502 237.888 452.438C212.392 439.921 212.468 366.891 219.812 327.395Z" fill="#57A773"/>
<path d="M200.177 265.539C196.591 243.049 192.061 219.69 196.832 197.534C200.032 182.684 207.183 169.669 211.927 155.468C225.333 115.337 218.624 69.7374 211.71 27.1468C210.19 17.7853 208.586 8.16437 204.361 0.180206C187.197 21.2534 193.906 56.4337 191.478 86.2447C189.17 114.559 177.654 140.308 171.535 167.733C163.974 201.621 164.878 238.338 174.084 271.587C176.978 282.027 180.697 292.301 181.509 303.295C182.626 318.425 178.988 439.071 203.385 408.965C224.569 382.817 205.069 296.468 200.177 265.539Z" fill="#57A773"/>
<path d="M295.881 280.825C298.445 265.865 297.048 250.254 299.117 235.174C301.19 220.098 308.269 204.258 320.321 200.743C324.463 199.533 329.566 200.413 331.757 204.913C333.51 208.513 332.813 213.088 332.064 217.183C328.395 237.194 324.726 257.199 321.058 277.21C319.62 285.045 318.162 292.961 315.291 300.166C311.541 309.576 305.54 317.386 301.721 326.762C296.38 339.867 295.578 355.333 289.722 368.103C285.681 376.923 279.461 383.918 275.042 392.454C268.073 405.934 263.469 459.081 247.854 455.641C233.599 452.496 235.58 413.829 237.005 402.754C243.298 353.908 287.628 328.927 295.881 280.825Z" fill="#57A773"/>
<path d="M146.44 253.943C146.242 250.792 145.992 247.235 143.956 245.243C141.316 242.662 137.26 244.347 134.723 247.071C125.247 257.277 128.027 275.631 131.586 290.345L139.891 324.666C145.019 345.879 149.227 388.627 161.428 405.347C170.596 417.92 177.616 412.377 180.646 393.116C187.461 349.723 149.272 298.648 146.44 253.943Z" fill="#57A773"/>
<path d="M77.1822 235.064C73.7599 261.225 69.8598 289.515 79.7969 313.038C91.3297 340.347 118.85 354.138 128.266 382.643C116.738 382.364 106.194 375.094 96.2076 368.034C82.2276 358.14 68.2283 348.233 54.9652 336.951C45.9097 329.247 36.9532 320.553 31.7292 308.652C21.4433 285.209 28.1449 256.324 36.3215 231.659C44.498 206.997 54.1851 180.675 49.137 154.78C48.1866 149.912 46.7145 144.924 47.5714 140.029C51.5429 117.368 71.1232 156.606 73.9769 164.559C82.0106 186.954 80.2556 211.561 77.1822 235.064Z" fill="#8DBB47"/>
<path d="M120.951 399.877C127.802 376.971 125.145 350.747 133.209 328.455C141.999 304.154 161.978 288.686 172.558 265.502C188.518 230.525 179.954 186.993 170.997 148.401C152.809 213.383 101.606 261.245 93.2576 329.223C90.7013 350.059 92.4637 371.303 91.6425 392.352C90.8131 413.683 85.4495 430.792 77.6005 448.936C96.1713 441.953 114.166 422.57 120.951 399.877Z" fill="#63924D"/>
<path d="M132.368 320.206C130.086 308.021 125.665 296.463 124.409 284.053C121.49 255.239 135.82 228.382 139.941 199.798C143.327 176.301 139.635 151.807 132.038 129.882C124.444 107.957 113.098 88.3491 100.817 69.9998C97.7714 81.9588 98.5321 94.8369 99.3552 107.341C101.055 133.256 102.823 159.864 96.9321 184.809C88.5827 220.157 65.2186 250.926 67.1083 287.692C68.3239 311.395 79.9707 331.946 90.2883 351.935C96.4475 363.873 100.947 375.923 105.16 389.02C109.407 402.228 115.347 399.703 121.423 388.747C132.317 369.095 136.743 343.554 132.368 320.206Z" fill="#98D44B"/>
<path d="M98.449 386.909C94.0472 369.92 82.1846 357.807 71.7992 345.341C63.2071 335.026 55.2986 323.856 48.1755 311.983C43.9934 305.012 40.009 297.597 38.3422 289.185C35.6923 275.813 39.1852 261.417 36.3047 248.112C34.3742 239.198 18.2333 185.335 0 185.335C6.45306 222.334 11.0087 259.831 13.6338 297.526C14.4961 309.942 15.2787 322.893 20.4796 333.595C24.1784 341.202 29.8214 347.038 35.3353 352.756C55.8231 374.012 75.9841 395.735 95.8046 417.923C98.1085 412.909 99.0284 406.956 98.3831 401.258" fill="#63924D"/>
</svg>
