<svg width="32" height="30" viewBox="0 0 32 30" fill="none" xmlns="http://www.w3.org/2000/svg">
<path d="M12.8215 13.6038C13.1239 13.3929 13.2699 13.0446 13.2699 12.5658C13.2803 12.3382 13.2317 12.1138 13.1274 11.9096C13.0336 11.7455 12.8945 11.6083 12.7242 11.5112C12.5476 11.408 12.3515 11.3397 12.1472 11.3103C11.9248 11.2701 11.6989 11.25 11.4764 11.2533H9.03299V13.9219H11.678C12.1333 13.9252 12.5192 13.8181 12.8215 13.6038V13.6038ZM13.2317 16.0145C12.8911 15.7634 12.4357 15.6395 11.8692 15.6395H9.02604V18.7868H11.8136C12.0743 18.7868 12.3141 18.7634 12.547 18.7165C12.7673 18.675 12.9773 18.5932 13.1656 18.4754C13.3429 18.365 13.4854 18.2143 13.5932 18.0201C13.6974 17.8259 13.7496 17.5781 13.7496 17.2801C13.7496 16.6875 13.5758 16.269 13.2317 16.0145V16.0145ZM16.0088 0C7.40982 0 0.4375 6.71652 0.4375 15C0.4375 23.2835 7.40982 30 16.0088 30C24.6078 30 31.5801 23.2835 31.5801 15C31.5801 6.71652 24.6078 0 16.0088 0ZM19.0153 9.60603H23.8257V10.7344H19.0153V9.60603ZM16.0088 18.9107C15.7838 19.3221 15.4625 19.6775 15.0703 19.9487C14.6602 20.2232 14.2049 20.4241 13.7218 20.5413C13.2163 20.6718 12.6949 20.736 12.1716 20.7321H6.41576V9.31138H12.0117C12.5782 9.31138 13.0926 9.36161 13.5619 9.45536C14.0276 9.54911 14.4239 9.70982 14.7575 9.92746C15.0877 10.1451 15.3484 10.4364 15.5326 10.798C15.7134 11.1562 15.8072 11.6049 15.8072 12.1373C15.8072 12.7132 15.6716 13.1886 15.4005 13.5737C15.126 13.9587 14.7297 14.2701 14.191 14.5145C14.9244 14.7154 15.4631 15.0737 15.8176 15.5759C16.1791 16.0848 16.3564 16.6942 16.3564 17.4107C16.3564 17.9933 16.2417 18.4922 16.0088 18.9107ZM25.6991 17.1429H19.4984C19.4984 17.7924 19.7313 18.4152 20.0823 18.75C20.4369 19.0815 20.9443 19.2489 21.6082 19.2489C22.0878 19.2489 22.4945 19.1317 22.8421 18.9007C23.1862 18.6696 23.3947 18.4252 23.4712 18.1708H25.5497C25.216 19.1652 24.7086 19.875 24.0204 20.3036C23.3391 20.7321 22.5049 20.9464 21.5352 20.9464C20.8574 20.9464 20.2492 20.8393 19.7035 20.635C19.1787 20.4375 18.706 20.1362 18.3167 19.7478C17.9329 19.3489 17.6362 18.8798 17.4443 18.3683C17.2322 17.8025 17.128 17.2065 17.1349 16.6071C17.1349 15.9877 17.2427 15.4118 17.4512 14.8761C17.8509 13.8348 18.6816 13.0011 19.7417 12.5692C20.3083 12.3415 20.9165 12.2277 21.5317 12.2344C22.2616 12.2344 22.8942 12.3683 23.4434 12.6429C23.9721 12.905 24.4311 13.2808 24.785 13.7411C25.1361 14.1998 25.3828 14.7221 25.5393 15.3114C25.6887 15.8906 25.7408 16.5 25.6991 17.1429V17.1429ZM21.4587 13.942C21.0834 13.942 20.7671 14.0056 20.5238 14.1295C20.2805 14.2533 20.0789 14.4074 19.9259 14.5848C19.7803 14.7562 19.6726 14.9544 19.6096 15.1674C19.554 15.3449 19.5158 15.5257 19.5019 15.7098H23.3426C23.287 15.1306 23.0784 14.702 22.8004 14.4007C22.5084 14.1027 22.0392 13.942 21.4587 13.942V13.942Z" fill="black"/>
</svg>
